HIERARCHY
ROOT Hips
{
	OFFSET -0.001795 -0.223333 0.028219
	CHANNELS 6 Xposition Yposition Zposition Zrotation Yrotation Xrotation 
	JOINT LeftUpLeg
	{
		OFFSET 0.069520 -0.091406 -0.006815
		CHANNELS 3 Zrotation Yrotation Xrotation
		JOINT LeftLeg
		{
			OFFSET 0.034277 -0.375199 -0.004496
			CHANNELS 3 Zrotation Yrotation Xrotation
			JOINT LeftFoot
			{
				OFFSET -0.013596 -0.397961 -0.043693
				CHANNELS 3 Zrotation Yrotation Xrotation
				JOINT LeftToe
				{
					OFFSET 0.026358 -0.055791 0.119288
					CHANNELS 3 Zrotation Yrotation Xrotation
					End Site
					{
						OFFSET 0.000000 0.000000 0.000000
					}
				}
			}
		}
	}
	JOINT RightUpLeg
	{
		OFFSET -0.067670 -0.090522 -0.004320
		CHANNELS 3 Zrotation Yrotation Xrotation
		JOINT RightLeg
		{
			OFFSET -0.038290 -0.382569 -0.008850
			CHANNELS 3 Zrotation Yrotation Xrotation
			JOINT RightFoot
			{
				OFFSET 0.015774 -0.398415 -0.042312
				CHANNELS 3 Zrotation Yrotation Xrotation
				JOINT RightToe
				{
					OFFSET -0.025372 -0.048144 0.123348
					CHANNELS 3 Zrotation Yrotation Xrotation
					End Site
					{
						OFFSET 0.000000 0.000000 0.000000
					}
				}
			}
		}
	}
	JOINT Spine
	{
		OFFSET -0.002533 0.108963 -0.026696
		CHANNELS 3 Zrotation Yrotation Xrotation
		JOINT Spine1
		{
			OFFSET 0.005487 0.135180 0.001092
			CHANNELS 3 Zrotation Yrotation Xrotation
			JOINT Spine2
			{
				OFFSET 0.001457 0.052922 0.025425
				CHANNELS 3 Zrotation Yrotation Xrotation
				JOINT Neck
				{
					OFFSET -0.002778 0.213870 -0.042857
					CHANNELS 3 Zrotation Yrotation Xrotation
					JOINT Head
					{
						OFFSET 0.005152 0.064970 0.051349
						CHANNELS 3 Zrotation Yrotation Xrotation
						End Site
						{
							OFFSET 0.000000 0.000000 0.000000
						}
					}
				}
				JOINT LeftShoulder
				{
					OFFSET 0.078845 0.121749 -0.034090
					CHANNELS 3 Zrotation Yrotation Xrotation
					JOINT LeftArm
					{
						OFFSET 0.090977 0.030469 -0.008868
						CHANNELS 3 Zrotation Yrotation Xrotation
						JOINT LeftForeArm
						{
							OFFSET 0.259612 -0.012772 -0.027456
							CHANNELS 3 Zrotation Yrotation Xrotation
							JOINT LeftHand
							{
								OFFSET 0.249234 0.008986 -0.001171
								CHANNELS 3 Zrotation Yrotation Xrotation
								End Site
								{
									OFFSET 0.000000 0.000000 0.000000
								}
							}
						}
					}
				}
				JOINT RightShoulder
				{
					OFFSET -0.081759 0.118833 -0.038615
					CHANNELS 3 Zrotation Yrotation Xrotation
					JOINT RightArm
					{
						OFFSET -0.096012 0.032551 -0.009143
						CHANNELS 3 Zrotation Yrotation Xrotation
						JOINT RightForeArm
						{
							OFFSET -0.253742 -0.013329 -0.021401
							CHANNELS 3 Zrotation Yrotation Xrotation
							JOINT RightHand
							{
								OFFSET -0.255298 0.007772 -0.005559
								CHANNELS 3 Zrotation Yrotation Xrotation
								End Site
								{
									OFFSET 0.000000 0.000000 0.000000
								}
							}
						}
					}
				}
			}
		}
	}
}
MOTION
Frames: 16
Frame Time: 0.050000
-0.070346 0.933119 0.895484 0.548895 13.354070 6.713104 3.612457 -0.839833 -10.344970 -6.077202 0.473216 2.593068 7.737480 17.239404 8.590611 0.000000 0.000000 0.000000 -0.286909 1.384858 -16.867207 4.228832 -0.727051 8.921044 -7.721416 -18.350632 8.139518 0.000000 0.000000 0.000000 6.398469 -3.573160 25.057459 2.113851 -1.601172 5.788176 -7.229251 5.967875 4.494586 12.305730 -2.823965 -25.653981 0.000000 0.000000 0.000000 -25.180701 -29.379987 10.842099 -38.466484 -26.778135 5.025643 46.817253 -66.720228 -31.894372 0.000000 0.000000 0.000000 14.889667 18.540385 11.365168 46.785681 35.500214 9.245279 -43.826728 69.825554 -23.444167 0.000000 0.000000 0.000000 
-0.069846 0.933286 0.894605 0.728351 13.682765 7.088290 3.187594 -0.903514 -10.903420 -5.695540 0.434021 2.782747 7.571361 17.021611 8.633383 0.000000 0.000000 0.000000 -0.495418 1.362873 -17.111918 4.156883 -0.710687 8.651613 -7.869903 -18.603621 8.329653 0.000000 0.000000 0.000000 6.290108 -3.603543 25.228385 2.479933 -1.780657 5.573276 -7.282681 6.409715 4.402645 12.759837 -2.955713 -25.794576 0.000000 0.000000 0.000000 -25.542651 -29.266806 10.542767 -39.314877 -26.188293 5.067871 46.004019 -67.051609 -31.694649 0.000000 0.000000 0.000000 14.988054 18.034499 11.269953 47.254662 35.596475 9.437992 -44.857811 70.222783 -24.149565 0.000000 0.000000 0.000000 
-0.069360 0.933398 0.893573 0.832025 13.915577 7.411474 2.909055 -0.948088 -11.266242 -5.443810 0.406795 2.694565 7.441154 16.854254 8.692269 0.000000 0.000000 0.000000 -0.681549 1.352446 -17.511321 4.180423 -0.722070 8.694949 -7.982229 -18.784392 8.521355 0.000000 0.000000 0.000000 6.233447 -3.671052 25.573025 2.575524 -1.812096 5.364684 -7.094172 6.512738 4.434216 12.933804 -2.980832 -26.007200 0.000000 0.000000 0.000000 -25.733912 -29.340067 10.542254 -39.908049 -26.392408 5.248336 45.015676 -65.519841 -30.173080 0.000000 0.000000 0.000000 14.708263 18.228899 11.351346 47.523037 36.357225 9.904185 -46.193033 69.105503 -24.521633 0.000000 0.000000 0.000000 
-0.068870 0.933038 0.892544 0.901863 13.979433 7.771606 2.814141 -1.000995 -11.796139 -5.464892 0.407380 2.841192 7.445832 16.874242 8.647748 0.000000 0.000000 0.000000 -0.833052 1.347484 -17.861235 4.213150 -0.725370 8.544286 -8.022081 -18.855923 8.526107 0.000000 0.000000 0.000000 6.045220 -3.664369 25.760003 2.864460 -1.936989 5.115959 -6.889392 6.805976 4.611202 13.124240 -2.970760 -26.376278 0.000000 0.000000 0.000000 -25.617002 -29.501283 10.537845 -40.895603 -26.717045 5.506716 44.719913 -63.617690 -29.031492 0.000000 0.000000 0.000000 14.426912 18.346321 11.421809 47.601141 37.212143 10.349473 -47.327163 68.317274 -24.837583 0.000000 0.000000 0.000000 
-0.068456 0.932922 0.891622 0.913077 13.922206 7.994911 2.693127 -1.027800 -12.028853 -5.336522 0.396150 2.738608 7.478074 16.937185 8.675201 0.000000 0.000000 0.000000 -0.999287 1.339807 -18.157771 4.395359 -0.762632 8.525968 -7.999843 -18.803702 8.589315 0.000000 0.000000 0.000000 5.987106 -3.701830 26.057571 3.046170 -2.040908 5.200582 -6.798147 6.741205 4.515712 13.309397 -3.009226 -26.692781 0.000000 0.000000 0.000000 -25.215468 -29.456438 10.538428 -41.797701 -27.039476 5.715240 44.843834 -61.418976 -27.958039 0.000000 0.000000 0.000000 14.155847 18.792480 11.571979 47.529899 38.043214 10.750901 -47.958780 67.205678 -24.784637 0.000000 0.000000 0.000000 
-0.068163 0.932812 0.890851 0.973317 14.020265 8.358273 2.505225 -1.072790 -12.397958 -5.141402 0.376237 2.614153 7.428978 16.886151 8.707505 0.000000 0.000000 0.000000 -1.164661 1.331463 -18.556669 4.494641 -0.784143 8.476043 -8.052447 -18.885570 8.687440 0.000000 0.000000 0.000000 5.857845 -3.714245 26.247875 3.229416 -2.119934 5.042576 -6.580275 6.743614 4.580264 13.253826 -2.902049 -27.065336 0.000000 0.000000 0.000000 -24.703202 -29.612717 10.629135 -42.391184 -27.287092 5.840684 45.944543 -59.437001 -27.646673 0.000000 0.000000 0.000000 13.780453 19.007430 11.595160 47.703379 38.203272 10.922532 -48.937628 67.033023 -25.345907 0.000000 0.000000 0.000000 
-0.067939 0.932855 0.890185 0.971421 14.007518 8.657066 2.317194 -1.110548 -12.686635 -4.829287 0.348292 2.477829 7.426373 16.909197 8.780576 0.000000 0.000000 0.000000 -1.090624 1.362620 -19.020662 4.295083 -0.744876 8.646785 -8.063668 -18.887437 8.804625 0.000000 0.000000 0.000000 5.765793 -3.719107 26.392193 3.417982 -2.193601 4.836495 -6.567067 6.842491 4.583069 13.179011 -2.777172 -27.416091 0.000000 0.000000 0.000000 -23.966994 -29.535207 10.506745 -42.682266 -27.735612 5.986506 47.179447 -58.242792 -27.851190 0.000000 0.000000 0.000000 13.725860 19.005907 11.615871 47.588598 38.052813 10.817923 -49.497744 67.196305 -25.764339 0.000000 0.000000 0.000000 
-0.067672 0.932992 0.889633 0.926878 13.914052 8.810218 2.089940 -1.135093 -12.821376 -4.385130 0.310461 2.367690 7.459155 16.977382 8.848779 0.000000 0.000000 0.000000 -1.050928 1.379589 -19.227523 4.246821 -0.731197 8.621700 -8.023850 -18.795803 8.921858 0.000000 0.000000 0.000000 5.723577 -3.717347 26.471181 3.435396 -2.157866 4.483826 -6.445903 6.879859 4.648202 12.930506 -2.606320 -27.643058 0.000000 0.000000 0.000000 -23.214325 -29.275209 10.301019 -42.886950 -28.146277 6.097765 49.301571 -57.638260 -28.925361 0.000000 0.000000 0.000000 13.777887 18.964622 11.620224 47.574384 37.550872 10.557781 -48.534175 67.972122 -25.465821 0.000000 0.000000 0.000000 
-0.067322 0.933342 0.889343 0.904384 13.747783 8.959405 1.947372 -1.158421 -12.989965 -4.138675 0.290225 2.371804 7.519948 17.101931 9.003708 0.000000 0.000000 0.000000 -1.091565 1.393075 -19.567981 4.290934 -0.744137 8.871396 -7.952078 -18.642316 9.079449 0.000000 0.000000 0.000000 5.574979 -3.686553 26.596944 3.448214 -2.122221 4.161010 -6.080631 6.886217 4.655040 12.719707 -2.486313 -27.789734 0.000000 0.000000 0.000000 -22.824635 -28.976626 10.146371 -42.991185 -28.401712 6.155889 51.582802 -57.034705 -30.031029 0.000000 0.000000 0.000000 13.617279 18.738727 11.420623 47.882151 36.402671 10.139333 -47.375013 69.639863 -25.487608 0.000000 0.000000 0.000000 
-0.067045 0.933516 0.889347 0.881393 13.612907 9.121541 1.746012 -1.182378 -13.126137 -3.769971 0.258950 2.325366 7.573080 17.202096 9.091024 0.000000 0.000000 0.000000 -1.141297 1.399534 -19.799645 4.374688 -0.761037 8.937437 -7.891822 -18.521022 9.165544 0.000000 0.000000 0.000000 5.659341 -3.692352 26.518350 3.472378 -2.120941 4.067816 -5.897407 6.537645 4.652505 12.202703 -2.221467 -28.098109 0.000000 0.000000 0.000000 -22.357285 -28.326390 9.892805 -43.150515 -28.897865 6.271299 53.820289 -56.427728 -31.001989 0.000000 0.000000 0.000000 13.122467 18.804686 11.219503 48.603063 35.763638 10.114818 -46.339866 70.811747 -25.405285 0.000000 0.000000 0.000000 
-0.067054 0.933467 0.889540 0.750032 13.096348 8.989291 1.898054 -1.166621 -13.100210 -3.833798 0.267809 2.590728 7.864740 17.631833 9.124546 0.000000 0.000000 0.000000 -1.050752 1.433364 -19.817796 4.473674 -0.775338 9.117524 -7.658637 -18.114908 9.051863 0.000000 0.000000 0.000000 5.601748 -3.622202 26.441947 3.275805 -1.992631 3.916775 -5.603245 6.467032 4.654348 11.908712 -2.124844 -28.078035 0.000000 0.000000 0.000000 -22.250370 -27.964352 9.795896 -42.981888 -29.168497 6.293395 54.209454 -55.123870 -30.353793 0.000000 0.000000 0.000000 13.218726 18.483444 10.988099 49.140267 35.151229 9.977335 -43.850597 71.643249 -24.054338 0.000000 0.000000 0.000000 
-0.067337 0.933309 0.889702 0.613800 12.740479 8.866279 2.029469 -1.149800 -13.038952 -3.807710 0.267764 2.743291 8.074043 17.930514 9.099844 0.000000 0.000000 0.000000 -0.792403 1.487210 -19.832821 4.317201 -0.736769 9.298827 -7.505974 -17.854786 8.925654 0.000000 0.000000 0.000000 5.406795 -3.515739 26.313633 3.236614 -1.965867 3.909073 -5.377101 5.836744 4.537083 11.306382 -1.897987 -28.244558 0.000000 0.000000 0.000000 -21.942134 -27.454154 9.779279 -42.628150 -29.605574 6.291165 53.610226 -52.755925 -28.323366 0.000000 0.000000 0.000000 13.014381 18.576808 10.790604 49.491011 34.537310 9.807498 -42.661121 72.526133 -23.806082 0.000000 0.000000 0.000000 
-0.067801 0.932935 0.889751 0.324783 12.092164 8.503808 2.349631 -1.096750 -12.741211 -3.847768 0.277433 2.926195 8.458128 18.468892 9.015057 0.000000 0.000000 0.000000 -0.358071 1.581813 -19.931196 4.165931 -0.706033 9.988195 -7.235040 -17.386640 8.694952 0.000000 0.000000 0.000000 5.434293 -3.470877 26.310229 2.761989 -1.696610 3.773782 -4.830161 5.249092 4.735590 10.754845 -1.785407 -28.083428 0.000000 0.000000 0.000000 -22.069707 -27.063150 9.922156 -42.145047 -29.766088 6.160721 52.888655 -50.534935 -26.316617 0.000000 0.000000 0.000000 13.258195 18.846973 10.762302 49.726032 34.379663 9.748608 -40.643200 73.238755 -22.904454 0.000000 0.000000 0.000000 
-0.068105 0.932590 0.889621 0.081909 11.234667 8.368207 2.431943 -1.066517 -12.549095 -3.580352 0.259976 2.912881 8.926262 19.156738 9.062308 0.000000 0.000000 0.000000 0.017457 1.675234 -20.060548 4.008673 -0.655125 10.278192 -6.870413 -16.738612 8.472346 0.000000 0.000000 0.000000 5.089231 -3.315759 26.367822 2.573347 -1.547556 3.373229 -4.739147 4.885077 4.813729 10.466840 -1.681616 -28.399576 0.000000 0.000000 0.000000 -21.870596 -26.592660 9.890419 -42.360688 -29.818843 6.135172 52.710248 -49.010251 -25.181259 0.000000 0.000000 0.000000 13.394886 18.816183 10.617472 50.338042 33.991020 9.707202 -38.721645 74.885943 -22.300064 0.000000 0.000000 0.000000 
-0.068102 0.932217 0.889460 -0.297908 10.724952 8.088942 2.592653 -1.028134 -12.281064 -3.202099 0.225351 2.951308 9.241194 19.595994 8.925677 0.000000 0.000000 0.000000 0.368960 1.746317 -20.068133 4.120831 -0.676061 10.622241 -6.653346 -16.347977 8.374749 0.000000 0.000000 0.000000 5.111999 -3.268979 26.269878 2.345335 -1.396621 3.069287 -4.698918 4.466990 5.163784 10.261731 -1.676030 -28.346984 0.000000 0.000000 0.000000 -22.155302 -26.418887 10.039920 -42.253868 -29.557551 5.960086 52.404697 -48.161811 -24.365699 0.000000 0.000000 0.000000 13.427291 18.386593 10.246772 50.708466 32.971248 9.282603 -37.009931 77.859526 -22.292699 0.000000 0.000000 0.000000 
-0.067822 0.932329 0.889131 -0.361656 10.201147 7.952751 2.405587 -1.018032 -12.109810 -2.840923 0.191163 2.977903 9.499262 19.984170 9.065091 0.000000 0.000000 0.000000 0.565302 1.783011 -19.940511 3.876845 -0.605775 10.570471 -6.423148 -15.925385 8.312620 0.000000 0.000000 0.000000 4.747747 -3.108776 26.165412 2.114473 -1.270378 3.019708 -4.985365 3.910617 5.137005 9.903151 -1.621811 -28.136820 0.000000 0.000000 0.000000 -22.506701 -25.914457 10.005802 -42.415487 -28.927631 5.730893 53.327411 -48.173726 -24.706813 0.000000 0.000000 0.000000 13.865508 17.723976 9.822915 50.897251 31.258444 8.475756 -31.551153 81.370192 -19.259527 0.000000 0.000000 0.000000 
